HIERARCHY
ROOT Hips
{
  OFFSET -125.086 92.215 135.881
  CHANNELS 6 Xposition Yposition Zposition Zrotation Xrotation Yrotation
  JOINT LeftUpLeg
  {
    OFFSET 8.64259 1.95398 -2.38835
    CHANNELS 3 Zrotation Xrotation Yrotation
    JOINT LeftLeg
    {
      OFFSET 43.7702 0 0
      CHANNELS 3 Zrotation Xrotation Yrotation
      JOINT LeftFoot
      {
        OFFSET 40.6238 0 0
        CHANNELS 3 Zrotation Xrotation Yrotation
        JOINT LeftToeBase
        {
          OFFSET 12.7242 0 0
          CHANNELS 3 Zrotation Xrotation Yrotation
          End Site
          {
            OFFSET 0 0 0
          }
        }
      }
    }
  }
  JOINT RightUpLeg
  {
    OFFSET -8.2249 1.95398 -2.59336
    CHANNELS 3 Zrotation Xrotation Yrotation
    JOINT RightLeg
    {
      OFFSET 43.5653 0 0
      CHANNELS 3 Zrotation Xrotation Yrotation
      JOINT RightFoot
      {
        OFFSET 40.6238 0 0
        CHANNELS 3 Zrotation Xrotation Yrotation
        JOINT RightToeBase
        {
          OFFSET 12.7242 0 0
          CHANNELS 3 Zrotation Xrotation Yrotation
          End Site
          {
            OFFSET 0 0 0
          }
        }
      }
    }
  }
  JOINT Spine
  {
    OFFSET 0.165834 0.87714 6.61349
    CHANNELS 3 Zrotation Xrotation Yrotation
    JOINT Spine1
    {
      OFFSET 7.38963 1.71661e-005 0
      CHANNELS 3 Zrotation Xrotation Yrotation
      JOINT Spine2
      {
        OFFSET 11.9445 1.14441e-005 0
        CHANNELS 3 Zrotation Xrotation Yrotation
        JOINT Spine3
        {
          OFFSET 14.7254 4.19617e-005 0
          CHANNELS 3 Zrotation Xrotation Yrotation
          JOINT Spine4
          {
            OFFSET 10.9679 0 0
            CHANNELS 3 Zrotation Xrotation Yrotation
            JOINT RightShoulder
            {
              OFFSET 2.46616 -1.6653 3.69651
              CHANNELS 3 Zrotation Xrotation Yrotation
              JOINT RightArm
              {
                OFFSET 13.0012 0 0
                CHANNELS 3 Zrotation Xrotation Yrotation
                JOINT RightForeArm
                {
                  OFFSET 28.7848 1.52588e-005 0
                  CHANNELS 3 Zrotation Xrotation Yrotation
                  JOINT RightHand
                  {
                    OFFSET 26.5688 1.52588e-005 0
                    CHANNELS 3 Zrotation Xrotation Yrotation
                    End Site
                    {
                      OFFSET 0 0 0
                    }
                  }
                }
              }
            }
            JOINT LeftShoulder
            {
              OFFSET 2.38034 -1.29275 -3.7523
              CHANNELS 3 Zrotation Xrotation Yrotation
              JOINT LeftArm
              {
                OFFSET 16.3182 6.10352e-005 0
                CHANNELS 3 Zrotation Xrotation Yrotation
                JOINT LeftForeArm
                {
                  OFFSET 27.0901 0 0
                  CHANNELS 3 Zrotation Xrotation Yrotation
                  JOINT LeftHand
                  {
                    OFFSET 24.5451 1.52588e-005 0
                    CHANNELS 3 Zrotation Xrotation Yrotation
                    End Site
                    {
                      OFFSET 0 0 0
                    }
                  }
                }
              }
            }
            JOINT Neck
            {
              OFFSET 5.0226 -0.0266342 0
              CHANNELS 3 Zrotation Xrotation Yrotation
              JOINT Head
              {
                OFFSET 6.69363 2.86102e-005 0
                CHANNELS 3 Zrotation Xrotation Yrotation
                End Site
                {
                  OFFSET 0 0 0
                }
              }
            }
          }
        }
      }
    }
  }
}
MOTION
Frames:	9
Frame Time:	0.0416667
230.132 96.9549 -234.662 -105.6 -56.7587 -103.348 -175.297 -9.71936 88.2998 -28.0895 27.4059 5.83924 65.7513 9.26513 12.4 49.4739 -1.35463 6.18034 176.074 16.532 85.0089 -6.00316 8.5996 -0.676874 53.3975 3.58101 23.9649 51.8208 -4.044 -4.22108 -0.643935 7.88103 -89.9742 11.1134 -1.26972 0.174578 -0.556971 -1.26081 0.230284 -23.097 -1.26349 -0.215166 -3.08438 -1.26348 -0.215159 113.369 -55.2853 -65.8362 26.7125 8.02228 2.93047 -0.178589 -30.7267 -7.08598 -8.43648 -0.458648 1.21396 -76.8975 -45.4015 98.3841 -39.8407 6.02289 -41.4845 11.3969 54.6131 -16.748 1.28602 -0.356757 -12.6915 2.19648 -0.858781 -5.57101 -21.046 -1.11487 7.51908 
223.012 95.9286 -228.259 -104.796 -57.4387 -101.328 -175.598 -10.7188 90.6697 -36.0547 26.6997 8.80974 63.6835 6.86198 7.53849 58.6575 -1.41496 7.84398 173.611 16.1635 86.3555 -10.8258 6.59371 2.50132 46.4047 4.17666 17.3275 42.2959 -2.14512 -3.86807 -0.786403 7.77618 -90.3492 11.3205 -1.72752 -0.523336 -0.349344 -1.74886 -0.446791 -22.8911 -1.49037 -1.01842 -2.87841 -1.49035 -1.01841 113.407 -55.1703 -65.7593 26.6488 8.50279 2.3501 -0.973927 -30.1559 -7.88643 -6.63894 -0.381209 1.63175 -76.7697 -45.798 98.5821 -41.0474 5.62219 -37.7171 12.6162 55.1253 -18.4253 2.26694 -0.434913 -12.8965 2.47087 0.301854 -4.72979 -19.8975 -0.0791487 7.98732 
215.663 96.0736 -221.515 -104.5 -57.1777 -98.431 -176.783 -6.50128 96.1918 -47.2025 20.7896 9.19077 50.6688 -0.804071 -0.267987 62.9136 -2.47787 1.68728 173.502 17.9561 89.5325 -25.1753 -0.674854 3.58661 51.9806 3.8449 9.00277 30.1771 -0.652008 1.99897 -0.823381 7.63966 -90.8493 11.5792 -2.03553 -1.48017 -0.0908456 -2.0987 -1.38915 -22.627 -1.49668 -2.02344 -2.61433 -1.49666 -2.02344 113.27 -54.9764 -65.9203 26.105 8.17294 -1.22463 -0.568095 -31.251 -7.53622 -8.00053 -0.570897 3.18221 -76.5965 -46.1373 98.8505 -44.2508 2.01622 -31.2714 7.14113 62.51 -8.68075 -2.24581 -0.123788 -12.761 2.85631 0.583748 -6.20007 -20.888 -0.0525724 10.8949 
209.277 96.0785 -215.796 -104.944 -56.2658 -97.3799 -178.385 4.65118 90.9348 -63.5503 8.18807 6.87873 46.8828 -1.33821 4.00523 58.8745 -2.46621 0.771823 173.382 15.2515 91.6658 -32.417 -0.298331 4.50507 60.0438 1.63789 7.41547 29.6602 -0.651395 5.6065 -0.541701 7.75157 -91.1373 11.3512 -1.60808 -2.1047 -0.320304 -1.69913 -2.03192 -22.8451 -0.901392 -2.49049 -2.83244 -0.901397 -2.49049 112.921 -54.6054 -66.3567 26.1539 5.56785 -7.34762 0.183 -26.2873 -9.0738 -10.712 -0.615485 1.65944 -76.7896 -46.7688 98.5323 -47.8992 -3.8508 -28.3304 4.2363 71.1961 0.549333 -7.26372 0.282321 -13.0928 3.65025 0.0698314 -6.85827 -20.1601 -0.155043 9.6592 
203.308 96.5502 -210.431 -101.349 -52.5781 -94.5204 -177.677 16.3312 91.8103 -66.4391 4.27808 4.52783 54.2182 3.6424 6.43158 56.1004 -1.84341 3.90197 174.512 11.8093 92.9687 -33.1448 1.19891 3.56264 65.3056 0.695057 11.1452 31.1261 -0.607569 3.12701 0.0213431 7.76075 -91.0617 11.3436 -0.452392 -2.06905 -0.328871 -0.543005 -2.04715 -22.8508 0.190196 -2.10934 -2.83818 0.190183 -2.10936 111.814 -53.9601 -67.8656 26.7714 1.89861 -15.8263 1.19659 -24.8308 -11.006 -15.0004 -0.933169 2.07962 -76.5469 -46.8539 98.9136 -48.1206 -9.0755 -25.7924 8.52052 74.4686 0.0480417 -5.39311 0.0817508 -10.897 3.97328 -0.449409 -6.24132 -20.2139 -0.369314 6.98424 
197.778 97.2829 -204.72 -101.796 -49.23 -96.4613 -177.399 19.3813 88.4118 -49.8554 6.96319 2.58065 56.0798 4.82174 7.47135 58.2711 -0.9299 11.1118 174.35 5.47564 91.791 -32.3926 -0.409457 1.83835 70.3007 -0.75653 12.7188 27.1682 -0.507823 6.31714 0.292218 7.97823 -90.7967 10.9158 0.213247 -1.60615 -0.756127 0.142364 -1.61397 -23.2845 0.686056 -1.46786 -3.27184 0.686057 -1.46786 110.22 -52.8376 -70.054 26.5806 -1.44028 -24.0682 1.25574 -24.6825 -13.2135 -11.7851 -0.579062 0.594644 -76.0373 -47.3583 99.7021 -45.2619 -12.4495 -21.1223 9.22572 73.5154 0.0492898 -4.36233 0.0572003 -12.5206 2.10147 -0.0464343 -5.99764 -18.7873 -0.173161 8.1108 
192.172 97.2513 -199.763 -100.422 -47.4216 -95.5397 -178.005 17.4698 88.3543 -18.9005 8.17834 1.27646 52.0765 1.80577 7.65439 48.1445 -1.12457 9.27517 174.831 -0.00941494 90.0024 -30.4083 0.643857 0.979566 70.7906 -0.414718 16.352 34.8815 -0.887649 -0.343089 0.530545 7.94706 -90.7194 10.9822 0.723103 -1.50019 -0.689441 0.656368 -1.53055 -23.2213 1.1405 -1.21357 -3.2086 1.1405 -1.21357 110.088 -52.5524 -70.2114 23.8749 -4.80466 -29.5608 1.01759 -23.9742 -17.3793 -12.0086 -0.440811 -0.955637 -76.139 -47.5272 99.5368 -42.344 -14.8039 -15.3521 7.65103 70.5073 0.0476515 -5.87339 0.167155 -12.803 1.96468 0.0244526 -5.20707 -19.3176 -0.262143 8.0352 
186.514 96.4297 -193.761 -99.5954 -45.1401 -93.6721 -178.06 17.9479 89.4597 -6.47436 7.74407 1.66305 56.3589 1.08961 0.144056 44.4809 -1.07148 11.3945 175.214 -3.68543 92.5392 -31.2631 -2.49685 0.174137 69.6933 -1.32551 15.5318 46.49 -2.7346 0.475456 0.728756 7.94226 -90.7146 10.9944 1.1198 -1.52862 -0.676992 1.05147 -1.57643 -23.2116 1.52744 -1.12145 -3.19897 1.52745 -1.12145 109.084 -52.0911 -71.6623 23.6299 -6.51488 -30.9191 -1.22479 -25.4624 -22.3373 -11.1554 -0.457891 -0.414929 -75.4467 -47.866 100.607 -40.6466 -16.2144 -12.3667 7.30234 68.8182 0.0509608 -6.33385 0.200078 -12.7157 2.32805 0.290881 -5.30967 -19.2039 -0.0137325 8.45505 
180.013 95.8097 -186.662 -98.8179 -44.1476 -94.081 -178.874 16.8313 88.0038 -8.60361 12.4899 1.89419 45.739 -4.09884 6.24014 44.7509 -1.08833 11.1226 174.573 -6.65191 90.0047 -34.5283 -7.14299 -1.27772 63.3063 0.058399 16.9653 58.965 -4.55693 0.904088 0.823172 7.94362 -90.4493 10.993 1.43065 -1.0304 -0.677642 1.38392 -1.09238 -23.2179 1.67416 -0.552731 -3.20527 1.67417 -0.55273 109.506 -52.2532 -71.0459 24.3331 -6.475 -29.5801 -1.8231 -27.6603 -22.0623 -10.1528 -0.328 -1.48759 -74.8198 -49.1714 101.513 -40.5452 -17.2351 -15.0052 9.02854 69.9315 0.0598357 -6.49649 0.18691 -12.0641 3.96015 -0.236654 -4.29933 -20.3697 -0.46601 6.69306 
